<?xml version="1.0" encoding="utf-8"?>
<!-- Generator: Adobe Illustrator 24.3.0, SVG Export Plug-In . SVG Version: 6.00 Build 0)  -->
<svg version="1.1" id="Laag_1" xmlns="http://www.w3.org/2000/svg" xmlns:xlink="http://www.w3.org/1999/xlink" x="0px" y="0px"
	 viewBox="0 0 267.6 39.5" style="enable-background:new 0 0 267.6 39.5;" xml:space="preserve">
<style type="text/css">
	.st0{fill:#332828;}
	.st1{fill:#A31E2D;}
	.st2{fill:#FFFFFF;}
</style>
<g id="Laag_2_1_">
	<g id="Laag_1-2">
		<path class="st0" d="M31.5,13.3c0,7.6-6,13.3-13.8,13.3H6.9v12.1H0V0h17.8C25.6,0,31.5,5.7,31.5,13.3z M24.4,13.3
			c0-2.9-2.6-4.8-6.8-4.8H6.9v9.7h10.7C21.8,18.2,24.4,16.2,24.4,13.3z"/>
		<path class="st0" d="M33.1,24.5c0-8.5,6.6-15,15.5-15S64,15.9,64,24.5s-6.6,15-15.5,15S33.1,33,33.1,24.5z M57.3,24.5
			c0-3.9-3.7-6.8-8.8-6.8s-8.8,2.9-8.8,6.8s3.8,6.8,8.8,6.8S57.3,28.3,57.3,24.5z"/>
		<path class="st0" d="M67.1,29.1h6.3c0,1.8,2.9,3.1,7,3.1s6.7-1,6.7-2.4s-3.4-2.1-8.5-2.7c-5.8-0.7-11-3.1-11-8.6
			c0-6,5.8-9.1,12.7-9.1c7.3,0,12.8,4.4,12.8,10h-6.4c0-1.6-2.8-2.8-6.5-2.8s-6.2,0.9-6.2,2.2s3.2,2.1,8.5,2.7s11,2.8,11,8.4
			c0,6.1-5.9,9.5-13.2,9.5C72.6,39.5,67.1,34.9,67.1,29.1z"/>
		<path class="st0" d="M107.7,18.2v9.7c0,1.9,1.2,2.8,3.7,2.8h4.1v8.1h-4.8c-6.2,0-9.4-3-9.4-8.9V18.2h-5.6v-8h5.6V3.5l6.5-1.8v8.4
			h8.3v8L107.7,18.2z"/>
		<path class="st0" d="M153.7,28.3c0,6.1-4.8,10.5-11.2,10.5h-21.1V0h20.4c5.9,0,10.5,4.2,10.5,10c0,3.5-1.9,6.7-5,8.4
			C151.1,20.1,153.7,24,153.7,28.3z M128.3,8.5v6.7h11.8c3,0,5-1.3,5-3.4s-1.9-3.3-5-3.3H128.3z M146.5,26.5c0-2.5-2.2-4-5.6-4
			h-12.5v7.8h12.5C144.3,30.3,146.5,28.8,146.5,26.5L146.5,26.5z"/>
		<path class="st0" d="M156.7,24.5c0-8.5,6.6-15,15.5-15s15.5,6.5,15.5,15s-6.6,15-15.5,15S156.7,33,156.7,24.5z M180.9,24.5
			c0-3.9-3.7-6.8-8.8-6.8s-8.8,2.9-8.8,6.8s3.8,6.8,8.8,6.8S180.9,28.3,180.9,24.5z"/>
		<path class="st0" d="M207.9,24.6l9.8,14.2h-7.5l-6.8-9.2h-1l-6.7,9.2h-8.1l10.1-14.6L188,10.1h7.5l6.6,9.2h1l6.6-9.2h8.2
			L207.9,24.6z"/>
		<polygon class="st1" points="262.3,18.6 230.3,18.6 235.6,0 267.6,0 		"/>
		<polygon class="st1" points="231.6,38.8 224.6,38.8 235.6,0 242.6,0 		"/>
		<polygon class="st2" points="232.5,18.6 237.3,18.6 236.5,21.5 		"/>
	</g>
</g>
</svg>
