<svg xmlns="http://www.w3.org/2000/svg" viewBox="0 0 267.62 39.47"><defs><style>.cls-1{fill:#fcf7f9;}.cls-2{fill:#a31e2d;}</style></defs><g id="Laag_2" data-name="Laag 2"><g id="Laag_1-2" data-name="Laag 1"><path class="cls-1" d="M31.54,13.33c0,7.59-6,13.32-13.77,13.32H6.92V38.8H0V0H17.77C25.58,0,31.54,5.74,31.54,13.33Zm-7.19,0c0-2.93-2.59-4.84-6.75-4.84H6.92v9.67H17.6C21.76,18.16,24.35,16.25,24.35,13.33Z"/><path class="cls-1" d="M33.06,24.46c0-8.55,6.64-15,15.46-15S64,15.91,64,24.46s-6.64,15-15.47,15S33.06,33,33.06,24.46Zm24.24,0c0-3.88-3.72-6.8-8.78-6.8s-8.82,2.92-8.82,6.8,3.76,6.8,8.82,6.8S57.3,28.34,57.3,24.46Z"/><path class="cls-1" d="M67.08,29.13h6.29c0,1.8,2.93,3.15,7,3.15s6.74-1,6.74-2.42-3.43-2.08-8.54-2.7c-5.8-.68-11-3.09-11-8.6,0-6,5.84-9.11,12.65-9.11,7.31,0,12.76,4.38,12.76,10H86.59c0-1.58-2.81-2.76-6.47-2.76s-6.24.9-6.24,2.2,3.15,2.08,8.49,2.7,11,2.75,11,8.43c0,6.13-5.9,9.5-13.16,9.5C72.59,39.47,67.08,34.86,67.08,29.13Z"/><path class="cls-1" d="M107.73,18.16v9.73c0,1.91,1.18,2.81,3.65,2.81h4.11v8.1h-4.84c-6.18,0-9.39-3-9.39-8.94V18.16H95.69v-8h5.57V3.49l6.47-1.8v8.43h8.32v8Z"/><path class="cls-1" d="M153.66,28.28c0,6.13-4.83,10.52-11.19,10.52H121.39V0h20.35c5.91,0,10.46,4.16,10.46,10a9.43,9.43,0,0,1-5,8.38A10.76,10.76,0,0,1,153.66,28.28ZM128.3,8.49v6.69h11.76c3,0,5-1.29,5-3.43s-1.91-3.26-5-3.26Zm18.17,18c0-2.47-2.2-4-5.63-4H128.3v7.82h12.54C144.27,30.31,146.47,28.85,146.47,26.48Z"/><path class="cls-1" d="M156.7,24.46c0-8.55,6.63-15,15.46-15s15.46,6.46,15.46,15-6.63,15-15.46,15S156.7,33,156.7,24.46Zm24.23,0c0-3.88-3.71-6.8-8.77-6.8s-8.83,2.92-8.83,6.8,3.77,6.8,8.83,6.8S180.93,28.34,180.93,24.46Z"/><path class="cls-1" d="M207.86,24.57l9.79,14.23h-7.48l-6.81-9.22h-1l-6.69,9.22h-8.1l10.07-14.57L188,10.12h7.53l6.64,9.17h1l6.58-9.17h8.16Z"/><polygon class="cls-2" points="267.62 0.01 262.31 18.64 232.5 18.64 236.51 21.5 231.58 38.8 224.59 38.8 230.34 18.64 235.65 0.01 267.62 0.01"/></g></g></svg>